<mxfile host="app.diagrams.net" modified="2022-02-28T14:33:32.687Z" agent="5.0 (Windows NT 10.0; Win64; x64) AppleWebKit/537.36 (KHTML, like Gecko) Chrome/98.0.4758.102 Safari/537.36" etag="5GOfpoOYXfYS4wEaZc8v" version="16.6.4" type="github">
  <diagram id="t7D31RCfqugVd1jj_JdW" name="Page-1">
    <mxGraphModel dx="2331" dy="644" grid="1" gridSize="10" guides="1" tooltips="1" connect="1" arrows="1" fold="1" page="1" pageScale="1" pageWidth="827" pageHeight="1169" math="0" shadow="0">
      <root>
        <mxCell id="0" />
        <mxCell id="1" parent="0" />
        <mxCell id="kdYOINkpGAULFltsVm6W-61" style="edgeStyle=orthogonalEdgeStyle;rounded=0;orthogonalLoop=1;jettySize=auto;html=1;entryX=0;entryY=0.5;entryDx=0;entryDy=0;" parent="1" source="kdYOINkpGAULFltsVm6W-1" target="kdYOINkpGAULFltsVm6W-2" edge="1">
          <mxGeometry relative="1" as="geometry" />
        </mxCell>
        <mxCell id="kdYOINkpGAULFltsVm6W-1" value="Program" style="rounded=0;whiteSpace=wrap;html=1;" parent="1" vertex="1">
          <mxGeometry x="-120" y="150" width="120" height="60" as="geometry" />
        </mxCell>
        <mxCell id="kdYOINkpGAULFltsVm6W-5" style="edgeStyle=orthogonalEdgeStyle;rounded=0;orthogonalLoop=1;jettySize=auto;html=1;entryX=0;entryY=0.5;entryDx=0;entryDy=0;" parent="1" source="kdYOINkpGAULFltsVm6W-2" target="kdYOINkpGAULFltsVm6W-10" edge="1">
          <mxGeometry relative="1" as="geometry">
            <mxPoint x="340" y="230" as="targetPoint" />
          </mxGeometry>
        </mxCell>
        <mxCell id="kdYOINkpGAULFltsVm6W-6" style="edgeStyle=orthogonalEdgeStyle;rounded=0;orthogonalLoop=1;jettySize=auto;html=1;" parent="1" source="kdYOINkpGAULFltsVm6W-2" target="kdYOINkpGAULFltsVm6W-7" edge="1">
          <mxGeometry relative="1" as="geometry">
            <mxPoint x="120" y="410" as="targetPoint" />
          </mxGeometry>
        </mxCell>
        <mxCell id="kdYOINkpGAULFltsVm6W-2" value="IAnimalFactory" style="rounded=0;whiteSpace=wrap;html=1;" parent="1" vertex="1">
          <mxGeometry x="60" y="150" width="120" height="60" as="geometry" />
        </mxCell>
        <mxCell id="kdYOINkpGAULFltsVm6W-43" style="edgeStyle=orthogonalEdgeStyle;rounded=0;orthogonalLoop=1;jettySize=auto;html=1;entryX=0.5;entryY=0;entryDx=0;entryDy=0;" parent="1" source="kdYOINkpGAULFltsVm6W-7" target="Rn46mQjM-5a-yKchO7Dd-2" edge="1">
          <mxGeometry relative="1" as="geometry">
            <mxPoint x="120" y="340" as="targetPoint" />
          </mxGeometry>
        </mxCell>
        <mxCell id="Rn46mQjM-5a-yKchO7Dd-12" style="edgeStyle=orthogonalEdgeStyle;rounded=0;orthogonalLoop=1;jettySize=auto;html=1;entryX=-0.013;entryY=0.103;entryDx=0;entryDy=0;entryPerimeter=0;" edge="1" parent="1" source="kdYOINkpGAULFltsVm6W-7" target="Rn46mQjM-5a-yKchO7Dd-7">
          <mxGeometry relative="1" as="geometry">
            <mxPoint x="-40" y="560" as="targetPoint" />
            <Array as="points">
              <mxPoint x="-40" y="270" />
              <mxPoint x="-40" y="570" />
              <mxPoint x="48" y="570" />
            </Array>
          </mxGeometry>
        </mxCell>
        <mxCell id="kdYOINkpGAULFltsVm6W-7" value="IAnimal" style="rounded=0;whiteSpace=wrap;html=1;" parent="1" vertex="1">
          <mxGeometry x="60" y="240" width="120" height="60" as="geometry" />
        </mxCell>
        <mxCell id="kdYOINkpGAULFltsVm6W-20" style="edgeStyle=orthogonalEdgeStyle;rounded=0;orthogonalLoop=1;jettySize=auto;html=1;" parent="1" source="kdYOINkpGAULFltsVm6W-10" target="kdYOINkpGAULFltsVm6W-13" edge="1">
          <mxGeometry relative="1" as="geometry" />
        </mxCell>
        <mxCell id="kdYOINkpGAULFltsVm6W-21" style="edgeStyle=orthogonalEdgeStyle;rounded=0;orthogonalLoop=1;jettySize=auto;html=1;entryX=0.5;entryY=0;entryDx=0;entryDy=0;" parent="1" source="kdYOINkpGAULFltsVm6W-10" target="kdYOINkpGAULFltsVm6W-17" edge="1">
          <mxGeometry relative="1" as="geometry" />
        </mxCell>
        <mxCell id="kdYOINkpGAULFltsVm6W-10" value="AbstracAnimalFactory" style="rounded=0;whiteSpace=wrap;html=1;" parent="1" vertex="1">
          <mxGeometry x="420" y="150" width="130" height="60" as="geometry" />
        </mxCell>
        <mxCell id="kdYOINkpGAULFltsVm6W-13" value="TwoLegsAnimalFactory" style="swimlane;fontStyle=0;childLayout=stackLayout;horizontal=1;startSize=30;horizontalStack=0;resizeParent=1;resizeParentMax=0;resizeLast=0;collapsible=1;marginBottom=0;" parent="1" vertex="1">
          <mxGeometry x="310" y="270" width="160" height="90" as="geometry">
            <mxRectangle x="310" y="270" width="160" height="30" as="alternateBounds" />
          </mxGeometry>
        </mxCell>
        <mxCell id="kdYOINkpGAULFltsVm6W-14" value="Create Chicken" style="text;strokeColor=none;fillColor=none;align=left;verticalAlign=middle;spacingLeft=4;spacingRight=4;overflow=hidden;points=[[0,0.5],[1,0.5]];portConstraint=eastwest;rotatable=0;" parent="kdYOINkpGAULFltsVm6W-13" vertex="1">
          <mxGeometry y="30" width="160" height="30" as="geometry" />
        </mxCell>
        <mxCell id="kdYOINkpGAULFltsVm6W-15" value="Create Duck" style="text;strokeColor=none;fillColor=none;align=left;verticalAlign=middle;spacingLeft=4;spacingRight=4;overflow=hidden;points=[[0,0.5],[1,0.5]];portConstraint=eastwest;rotatable=0;" parent="kdYOINkpGAULFltsVm6W-13" vertex="1">
          <mxGeometry y="60" width="160" height="30" as="geometry" />
        </mxCell>
        <mxCell id="kdYOINkpGAULFltsVm6W-17" value="FourLegsAnimalFactory" style="swimlane;fontStyle=0;childLayout=stackLayout;horizontal=1;startSize=30;horizontalStack=0;resizeParent=1;resizeParentMax=0;resizeLast=0;collapsible=1;marginBottom=0;" parent="1" vertex="1">
          <mxGeometry x="490" y="270" width="170" height="90" as="geometry" />
        </mxCell>
        <mxCell id="kdYOINkpGAULFltsVm6W-18" value="Create Dog" style="text;strokeColor=none;fillColor=none;align=left;verticalAlign=middle;spacingLeft=4;spacingRight=4;overflow=hidden;points=[[0,0.5],[1,0.5]];portConstraint=eastwest;rotatable=0;" parent="kdYOINkpGAULFltsVm6W-17" vertex="1">
          <mxGeometry y="30" width="170" height="30" as="geometry" />
        </mxCell>
        <mxCell id="kdYOINkpGAULFltsVm6W-19" value="Create Cat" style="text;strokeColor=none;fillColor=none;align=left;verticalAlign=middle;spacingLeft=4;spacingRight=4;overflow=hidden;points=[[0,0.5],[1,0.5]];portConstraint=eastwest;rotatable=0;" parent="kdYOINkpGAULFltsVm6W-17" vertex="1">
          <mxGeometry y="60" width="170" height="30" as="geometry" />
        </mxCell>
        <mxCell id="kdYOINkpGAULFltsVm6W-39" value="Duck" style="rounded=0;whiteSpace=wrap;html=1;" parent="1" vertex="1">
          <mxGeometry x="-10" y="460" width="120" height="60" as="geometry" />
        </mxCell>
        <mxCell id="kdYOINkpGAULFltsVm6W-40" value="Chicken" style="rounded=0;whiteSpace=wrap;html=1;" parent="1" vertex="1">
          <mxGeometry x="130" y="460" width="120" height="60" as="geometry" />
        </mxCell>
        <mxCell id="kdYOINkpGAULFltsVm6W-49" value="" style="endArrow=block;startArrow=none;endFill=0;startFill=0;endSize=8;html=1;verticalAlign=bottom;dashed=1;labelBackgroundColor=none;rounded=0;exitX=0;exitY=0.5;exitDx=0;exitDy=0;entryX=1;entryY=0.5;entryDx=0;entryDy=0;" parent="1" source="kdYOINkpGAULFltsVm6W-14" target="kdYOINkpGAULFltsVm6W-40" edge="1">
          <mxGeometry width="160" relative="1" as="geometry">
            <mxPoint x="240" y="400" as="sourcePoint" />
            <mxPoint x="50" y="520" as="targetPoint" />
            <Array as="points">
              <mxPoint x="280" y="315" />
              <mxPoint x="280" y="490" />
            </Array>
          </mxGeometry>
        </mxCell>
        <mxCell id="kdYOINkpGAULFltsVm6W-50" value="" style="endArrow=block;startArrow=none;endFill=0;startFill=0;endSize=8;html=1;verticalAlign=bottom;dashed=1;labelBackgroundColor=none;rounded=0;exitX=0.551;exitY=1.02;exitDx=0;exitDy=0;exitPerimeter=0;entryX=0.5;entryY=1;entryDx=0;entryDy=0;" parent="1" source="kdYOINkpGAULFltsVm6W-15" target="kdYOINkpGAULFltsVm6W-39" edge="1">
          <mxGeometry width="160" relative="1" as="geometry">
            <mxPoint x="390" y="450" as="sourcePoint" />
            <mxPoint x="50" y="540" as="targetPoint" />
            <Array as="points">
              <mxPoint x="398" y="540" />
              <mxPoint x="50" y="540" />
            </Array>
          </mxGeometry>
        </mxCell>
        <mxCell id="kdYOINkpGAULFltsVm6W-51" value="Dog" style="rounded=0;whiteSpace=wrap;html=1;" parent="1" vertex="1">
          <mxGeometry x="-10" y="680" width="120" height="60" as="geometry" />
        </mxCell>
        <mxCell id="kdYOINkpGAULFltsVm6W-52" value="Cat" style="rounded=0;whiteSpace=wrap;html=1;" parent="1" vertex="1">
          <mxGeometry x="130" y="680" width="120" height="60" as="geometry" />
        </mxCell>
        <mxCell id="kdYOINkpGAULFltsVm6W-58" value="" style="endArrow=block;startArrow=none;endFill=0;startFill=0;endSize=8;html=1;verticalAlign=bottom;dashed=1;labelBackgroundColor=none;rounded=0;exitX=0.505;exitY=1.1;exitDx=0;exitDy=0;exitPerimeter=0;entryX=1;entryY=0.5;entryDx=0;entryDy=0;" parent="1" source="kdYOINkpGAULFltsVm6W-19" target="kdYOINkpGAULFltsVm6W-52" edge="1">
          <mxGeometry width="160" relative="1" as="geometry">
            <mxPoint x="530" y="520" as="sourcePoint" />
            <mxPoint x="690" y="520" as="targetPoint" />
            <Array as="points">
              <mxPoint x="576" y="710" />
            </Array>
          </mxGeometry>
        </mxCell>
        <mxCell id="kdYOINkpGAULFltsVm6W-59" value="" style="endArrow=block;startArrow=none;endFill=0;startFill=0;endSize=8;html=1;verticalAlign=bottom;dashed=1;labelBackgroundColor=none;rounded=0;exitX=1;exitY=0.5;exitDx=0;exitDy=0;entryX=0.5;entryY=1;entryDx=0;entryDy=0;" parent="1" source="kdYOINkpGAULFltsVm6W-18" target="kdYOINkpGAULFltsVm6W-51" edge="1">
          <mxGeometry width="160" relative="1" as="geometry">
            <mxPoint x="670" y="320" as="sourcePoint" />
            <mxPoint x="50" y="742" as="targetPoint" />
            <Array as="points">
              <mxPoint x="680" y="315" />
              <mxPoint x="680" y="760" />
              <mxPoint x="360" y="760" />
              <mxPoint x="50" y="760" />
            </Array>
          </mxGeometry>
        </mxCell>
        <mxCell id="Rn46mQjM-5a-yKchO7Dd-2" value="TwoLegsAnimal" style="swimlane;fontStyle=0;childLayout=stackLayout;horizontal=1;startSize=30;horizontalStack=0;resizeParent=1;resizeParentMax=0;resizeLast=0;collapsible=1;marginBottom=0;" vertex="1" parent="1">
          <mxGeometry x="40" y="340" width="160" height="90" as="geometry">
            <mxRectangle x="310" y="270" width="160" height="30" as="alternateBounds" />
          </mxGeometry>
        </mxCell>
        <mxCell id="Rn46mQjM-5a-yKchO7Dd-3" value="GetName Chicken" style="text;strokeColor=none;fillColor=none;align=left;verticalAlign=middle;spacingLeft=4;spacingRight=4;overflow=hidden;points=[[0,0.5],[1,0.5]];portConstraint=eastwest;rotatable=0;" vertex="1" parent="Rn46mQjM-5a-yKchO7Dd-2">
          <mxGeometry y="30" width="160" height="30" as="geometry" />
        </mxCell>
        <mxCell id="Rn46mQjM-5a-yKchO7Dd-4" value="GetName Duck" style="text;strokeColor=none;fillColor=none;align=left;verticalAlign=middle;spacingLeft=4;spacingRight=4;overflow=hidden;points=[[0,0.5],[1,0.5]];portConstraint=eastwest;rotatable=0;" vertex="1" parent="Rn46mQjM-5a-yKchO7Dd-2">
          <mxGeometry y="60" width="160" height="30" as="geometry" />
        </mxCell>
        <mxCell id="Rn46mQjM-5a-yKchO7Dd-5" value="" style="endArrow=block;startArrow=none;endFill=0;startFill=0;endSize=8;html=1;verticalAlign=bottom;dashed=1;labelBackgroundColor=none;rounded=0;exitX=1;exitY=0.5;exitDx=0;exitDy=0;entryX=0.75;entryY=0;entryDx=0;entryDy=0;" edge="1" parent="1" source="Rn46mQjM-5a-yKchO7Dd-3" target="kdYOINkpGAULFltsVm6W-40">
          <mxGeometry width="160" relative="1" as="geometry">
            <mxPoint x="220" y="390" as="sourcePoint" />
            <mxPoint x="240" y="400" as="targetPoint" />
            <Array as="points">
              <mxPoint x="220" y="385" />
            </Array>
          </mxGeometry>
        </mxCell>
        <mxCell id="Rn46mQjM-5a-yKchO7Dd-6" value="" style="endArrow=block;startArrow=none;endFill=0;startFill=0;endSize=8;html=1;verticalAlign=bottom;dashed=1;labelBackgroundColor=none;rounded=0;entryX=0.25;entryY=0;entryDx=0;entryDy=0;exitX=0;exitY=0.5;exitDx=0;exitDy=0;" edge="1" parent="1" source="Rn46mQjM-5a-yKchO7Dd-4" target="kdYOINkpGAULFltsVm6W-39">
          <mxGeometry width="160" relative="1" as="geometry">
            <mxPoint x="20" y="420" as="sourcePoint" />
            <mxPoint x="70" y="440" as="targetPoint" />
            <Array as="points">
              <mxPoint x="20" y="415" />
            </Array>
          </mxGeometry>
        </mxCell>
        <mxCell id="Rn46mQjM-5a-yKchO7Dd-7" value="TwoLegsAnimalFactory" style="swimlane;fontStyle=0;childLayout=stackLayout;horizontal=1;startSize=30;horizontalStack=0;resizeParent=1;resizeParentMax=0;resizeLast=0;collapsible=1;marginBottom=0;" vertex="1" parent="1">
          <mxGeometry x="50" y="560" width="160" height="90" as="geometry">
            <mxRectangle x="310" y="270" width="160" height="30" as="alternateBounds" />
          </mxGeometry>
        </mxCell>
        <mxCell id="Rn46mQjM-5a-yKchO7Dd-8" value="GetName Dog" style="text;strokeColor=none;fillColor=none;align=left;verticalAlign=middle;spacingLeft=4;spacingRight=4;overflow=hidden;points=[[0,0.5],[1,0.5]];portConstraint=eastwest;rotatable=0;" vertex="1" parent="Rn46mQjM-5a-yKchO7Dd-7">
          <mxGeometry y="30" width="160" height="30" as="geometry" />
        </mxCell>
        <mxCell id="Rn46mQjM-5a-yKchO7Dd-9" value="GetName Cat" style="text;strokeColor=none;fillColor=none;align=left;verticalAlign=middle;spacingLeft=4;spacingRight=4;overflow=hidden;points=[[0,0.5],[1,0.5]];portConstraint=eastwest;rotatable=0;" vertex="1" parent="Rn46mQjM-5a-yKchO7Dd-7">
          <mxGeometry y="60" width="160" height="30" as="geometry" />
        </mxCell>
        <mxCell id="Rn46mQjM-5a-yKchO7Dd-11" value="" style="endArrow=block;startArrow=none;endFill=0;startFill=0;endSize=8;html=1;verticalAlign=bottom;dashed=1;labelBackgroundColor=none;rounded=0;entryX=0.25;entryY=0;entryDx=0;entryDy=0;exitX=0;exitY=0.5;exitDx=0;exitDy=0;" edge="1" parent="1" source="Rn46mQjM-5a-yKchO7Dd-8" target="kdYOINkpGAULFltsVm6W-51">
          <mxGeometry width="160" relative="1" as="geometry">
            <mxPoint x="20" y="600" as="sourcePoint" />
            <mxPoint x="50" y="660" as="targetPoint" />
            <Array as="points">
              <mxPoint x="20" y="605" />
            </Array>
          </mxGeometry>
        </mxCell>
        <mxCell id="Rn46mQjM-5a-yKchO7Dd-13" value="" style="endArrow=block;startArrow=none;endFill=0;startFill=0;endSize=8;html=1;verticalAlign=bottom;dashed=1;labelBackgroundColor=none;rounded=0;exitX=1;exitY=0.5;exitDx=0;exitDy=0;entryX=0.864;entryY=-0.004;entryDx=0;entryDy=0;entryPerimeter=0;" edge="1" parent="1" source="Rn46mQjM-5a-yKchO7Dd-9" target="kdYOINkpGAULFltsVm6W-52">
          <mxGeometry width="160" relative="1" as="geometry">
            <mxPoint x="280" y="590" as="sourcePoint" />
            <mxPoint x="440" y="590" as="targetPoint" />
            <Array as="points">
              <mxPoint x="234" y="635" />
            </Array>
          </mxGeometry>
        </mxCell>
      </root>
    </mxGraphModel>
  </diagram>
</mxfile>
